<svg id="Grupo_874025" data-name="Grupo 874025" xmlns="http://www.w3.org/2000/svg" xmlns:xlink="http://www.w3.org/1999/xlink" width="74.86" height="74.86" viewBox="0 0 74.86 74.86">
  <defs>
    <clipPath id="clip-path">
      <rect id="Rectángulo_292487" data-name="Rectángulo 292487" width="74.86" height="74.86" fill="none"/>
    </clipPath>
  </defs>
  <g id="Grupo_874025-2" data-name="Grupo 874025" clip-path="url(#clip-path)">
    <path id="Trazado_609152" data-name="Trazado 609152" d="M74.86,73.19c0,1.291-.373,1.669-1.647,1.669H1.757C.328,74.859,0,74.527,0,73.075Q0,55.494,0,37.913c0-1.336.356-1.691,1.7-1.691,1.66,0,3.32-.019,4.98.012.467.009.579-.112.579-.579q-.023-12.714,0-25.428c0-.463-.106-.584-.576-.582-1.6.008-1.85-.274-1.85-1.9,0-2.088,0-4.175,0-6.263C4.834.44,5.262,0,6.287,0Q26.546,0,46.806,0c1.073,0,1.488.427,1.49,1.52q.006,3.282,0,6.565c0,1.174-.407,1.617-1.591,1.555-.7-.037-.849.19-.84.857q.059,4.074,0,8.149c-.008.582.158.687.7.685q10.9-.029,21.806-.013c1.282,0,1.653.373,1.653,1.661,0,6.439.01,12.878-.016,19.316,0,.626.139.819.772.771.825-.062,1.659-.017,2.489-.015,1.183,0,1.584.4,1.584,1.579q0,13.884,0,27.767,0,1.4,0,2.792" transform="translate(0 0.001)" fill="#fefefe"/>
    <path id="Trazado_609153" data-name="Trazado 609153" d="M73.275,41.053c-.83,0-1.664-.047-2.489.015-.633.047-.775-.145-.772-.771.026-6.439.017-12.877.016-19.316,0-1.288-.371-1.661-1.653-1.661q-10.9,0-21.806.013c-.547,0-.712-.1-.7-.685q.054-4.074,0-8.149c-.01-.667.135-.894.84-.857,1.183.063,1.589-.381,1.591-1.555q0-3.282,0-6.565c0-1.093-.417-1.52-1.49-1.52Q26.546,0,6.286,0C5.262,0,4.834.441,4.831,1.479c-.005,2.088,0,4.175,0,6.263,0,1.63.252,1.912,1.85,1.9.47,0,.577.119.576.582q-.023,12.714,0,25.428c0,.467-.112.587-.579.579-1.659-.031-3.32-.013-4.98-.012-1.341,0-1.7.355-1.7,1.691Q0,55.495,0,73.076c0,1.452.327,1.784,1.757,1.784H73.213c1.274,0,1.645-.378,1.647-1.669q0-1.4,0-2.792,0-13.884,0-27.768c0-1.179-.4-1.576-1.584-1.579M32.593,2.982c-.006-.4.081-.579.534-.576,3.444.024,6.888.024,10.332.032h0c.628-.007,1.257,0,1.884-.027.365-.014.552.076.546.5q-.031,1.923,0,3.846c.007.42-.181.51-.546.5-.627-.024-1.256-.02-1.884-.027-3.444.007-6.888.008-10.331.032-.454,0-.541-.174-.535-.576q.03-1.847,0-3.7m-9.661.023c-.009-.434.068-.611.564-.6,2.057.031,4.114.026,6.171,0,.45-.005.534.159.527.562-.023,1.229-.037,2.459.005,3.687.019.53-.184.614-.643.6-.978-.03-1.957-.009-2.935-.009-1,0-2.008-.026-3.01.011-.5.018-.7-.077-.683-.638.046-1.2.031-2.408.005-3.612m2.408,7.414c0-.63.152-.794.779-.777,1.65.045,1.651.013,1.651,1.7V23.024c0,4.171-.012,8.342.014,12.513,0,.567-.14.709-.7.7-1.726-.03-1.727,0-1.727-1.7q0-12.061-.016-24.122m-2.385-.078q-.031,12.6,0,25.2c0,.579-.162.7-.713.7q-5.922-.036-11.844,0c-.574,0-.758-.121-.754-.733.029-4.2.015-8.4.015-12.6,0-4.174.014-8.349-.015-12.523,0-.609.176-.738.752-.734q5.922.037,11.844,0c.549,0,.716.114.715.7M21.742,47.755c0,.416-.1.561-.537.551q-1.881-.042-3.765,0c-.427.009-.554-.112-.546-.543.026-1.43.01-2.861.01-4.292s.014-2.862-.009-4.292c-.007-.417.1-.561.538-.552q1.881.042,3.765,0c.427-.009.549.113.546.543q-.028,4.292,0,8.584M7.232,6.5c.042-1.156.027-2.314,0-3.47C7.229,2.6,7.3,2.4,7.8,2.4q6.074.03,12.149,0c.482,0,.593.16.583.607-.026,1.207-.033,2.415,0,3.622.015.513-.169.627-.646.621-1.987-.023-3.974-.01-5.961-.01S9.956,7.218,7.97,7.26c-.618.013-.758-.189-.737-.763M36.239,71.6c0,.686-.166.934-.858.852a15.336,15.336,0,0,0-1.581-.034c-.226.008-.452.023-.677.023q-14.974,0-29.948.017c-.626,0-.777-.146-.775-.774q.033-16.143,0-32.286c0-.621.136-.786.771-.78q5.318.052,10.636,0c.568,0,.7.138.7.7-.029,3.269-.016,6.538-.014,9.806,0,1.182.4,1.58,1.581,1.582q3.281,0,6.563,0c1.083,0,1.512-.425,1.513-1.5,0-3.294.015-6.588-.012-9.882,0-.55.11-.715.69-.707,2.991.041,5.983.031,8.975.039.775.007,1.76-.271,2.266.1.485.358.15,1.406.15,2.148.01,10.231,0,20.462.023,30.693M30.721,36.231c-.435,0-.549-.132-.544-.554.021-1.758.009-3.517.009-5.275,0-6.657.009-13.315-.015-19.972,0-.62.14-.795.776-.787,3.366.042,6.732.032,10.1.04.774-.017,1.753-.325,2.262.1.49.411.152,1.416.153,2.158.012,7.834,0,15.668.022,23.5,0,.619-.143.858-.782.788-.546-.059-1.1-.026-1.655-.034-3.441.008-6.883.008-10.324.033m9.661,2.406c1.333,0,2.665,0,4,0,1.075,0,1.5-.429,1.5-1.511,0-4.877.014-9.755-.015-14.632,0-.626.145-.779.774-.776,6.184.034,12.368.032,18.552.04.774.006,1.756-.272,2.263.1.488.357.134,1.4.153,2.143.027,1.078-.013,2.158.017,3.236.012.435-.128.568-.552.542-.625-.038-1.253-.024-1.88-.031-1.131.008-2.262.012-3.393.025-.983.011-1.421.447-1.426,1.432q-.012,2.188,0,4.376c.005.985.445,1.422,1.426,1.434,1.131.013,2.262.017,3.393.025.774.006,1.756-.272,2.263.1.488.357.134,1.4.153,2.143.027,1.078-.013,2.158.017,3.236.012.435-.128.568-.552.542-.625-.038-1.253-.023-1.88-.031q-5.694.012-11.387.023c-4.827,0-9.654-.009-14.481.015-.558,0-.714-.122-.7-.694.033-1.734.005-1.734,1.76-1.734M65.824,32.6h-.676c-.6,0-1.2-.035-1.8.011-.488.037-.569-.153-.571-.594-.008-1.831-.023-1.831,1.8-1.831.826,0,1.655.032,2.479-.012.488-.026.569.154.571.6.009,1.831.024,1.831-1.8,1.831M53.12,43.928c0-.358.1-.474.465-.468q1.956.028,3.914,0c.363-.005.472.11.465.469-.02,1.053-.007,2.107-.007,3.161s-.013,2.108.007,3.161c.007.359-.1.474-.465.469q-1.956-.029-3.914,0c-.363.005-.467-.11-.465-.468q.022-3.161,0-6.322m4.844,28.055c0,.358-.1.474-.465.469q-1.956-.029-3.914,0c-.362.005-.473-.109-.465-.468.021-1.053.007-2.107.007-3.161s.013-2.108-.007-3.161c-.007-.358.1-.474.465-.469q1.956.029,3.914,0c.362-.005.468.11.465.468q-.022,3.161,0,6.322m14.5-.392c0,.677-.153.95-.859.865a15.027,15.027,0,0,0-1.579-.034c-3.041.008-6.083,0-9.124.037-.543.006-.533-.257-.531-.642.009-2.464.006-4.927,0-7.391,0-1.247-.381-1.637-1.6-1.638q-3.281,0-6.562,0c-1.079,0-1.493.423-1.5,1.515,0,2.464-.016,4.928.01,7.391.006.551-.081.775-.717.769-3.569-.035-7.14-.028-10.709,0-.521,0-.672-.123-.671-.66q.026-13.84,0-27.679c0-.534.144-.666.669-.663q5.392.035,10.785,0c.559,0,.648.189.644.688-.024,2.489-.014,4.978-.009,7.466,0,1.09.419,1.515,1.494,1.517q3.318.008,6.637,0c1.117,0,1.525-.421,1.526-1.562q0-3.733,0-7.467c0-.385-.011-.648.532-.642,3.041.035,6.083.029,9.124.037.774-.017,1.753-.325,2.262.1.49.412.152,1.417.153,2.159.011,8.613,0,17.226.023,25.839" transform="translate(0 0)"/>
    <path id="Trazado_609154" data-name="Trazado 609154" d="M34.321,191.464c-.58-.008-.694.157-.69.707.027,3.294.016,6.588.012,9.882,0,1.075-.43,1.5-1.513,1.5q-3.281.006-6.563,0c-1.182,0-1.581-.4-1.581-1.582,0-3.269-.016-6.538.014-9.806.005-.562-.129-.7-.7-.7q-5.318.044-10.636,0c-.635-.006-.772.159-.771.779q.031,16.143,0,32.286c0,.628.149.775.775.774q14.974-.033,29.948-.017c.226,0,.451-.015.677-.023V191.5c-2.992-.008-5.984,0-8.975-.039M19.616,208.632c.728-.728,1.449-1.463,2.187-2.181a1.207,1.207,0,0,1,1.961.007c1.058,1.036,2.09,2.1,3.153,3.131.291.282.288.474-.018.711-.5.387-.839,1.267-1.422,1.161-.488-.089-.854-.856-1.273-1.322l-.218.127c0,2.351-.021,4.7.015,7.054.009.588-.142.75-.735.737-1.694-.038-1.695-.01-1.695-1.719v-6.3c-.513.536-.894.917-1.254,1.317-.215.24-.357.227-.6.009-1.5-1.328-1.509-1.32-.1-2.731m17.113,14.24c-5.63,0-11.259-.009-16.889.014-.563,0-.71-.131-.7-.7.032-1.731.005-1.732,1.761-1.732h7.992c2.991,0,5.982.012,8.972-.012.492,0,.624.126.621.619-.008,1.807.012,1.807-1.759,1.807m2.292-12.6c-1.3,1.418-1.29,1.428-2.681.1-.052-.049-.113-.089-.279-.217v1.689c0,1.858-.013,3.716.009,5.574.006.458-.07.645-.6.642-1.826-.01-1.826.015-1.826-1.814v-5.949l-.2-.157c-.286.338-.6.66-.854,1.018-.375.52-.65.377-1.034-.02-1.166-1.207-1.181-1.192-.014-2.358.782-.781,1.555-1.57,2.347-2.339a1.188,1.188,0,0,1,1.906-.017c1.079,1.051,2.13,2.13,3.206,3.184.246.241.273.383.017.663" transform="translate(-9.497 -152.842)" fill="#f8d08a"/>
    <path id="Trazado_609155" data-name="Trazado 609155" d="M222.9,215.459c-3.041-.008-6.083,0-9.124-.037-.543-.006-.533.257-.532.642q.013,3.733,0,7.467c0,1.142-.409,1.56-1.526,1.562q-3.318.006-6.637,0c-1.076,0-1.492-.427-1.494-1.517,0-2.489-.014-4.978.01-7.466,0-.5-.085-.692-.644-.688q-5.392.04-10.785,0c-.525,0-.669.129-.669.663q.025,13.84,0,27.68c0,.537.15.663.671.66,3.57-.023,7.14-.03,10.71,0,.636.006.723-.218.717-.769-.026-2.464-.014-4.927-.01-7.391,0-1.091.416-1.512,1.495-1.515q3.281-.008,6.562,0c1.219,0,1.6.392,1.6,1.638,0,2.464,0,4.927,0,7.391,0,.385-.012.648.531.642,3.041-.035,6.083-.028,9.124-.036Z" transform="translate(-152.883 -171.968)" fill="#c08d59"/>
    <path id="Trazado_609156" data-name="Trazado 609156" d="M48.568,47.823c-.576,0-.757.125-.752.734.029,4.174.015,8.349.015,12.523,0,4.2.014,8.4-.015,12.6,0,.612.18.736.754.733q5.922-.036,11.844,0c.551,0,.715-.118.713-.7q-.031-12.6,0-25.2c0-.581-.166-.7-.715-.695q-5.922.036-11.844,0" transform="translate(-38.172 -38.176)" fill="#c08d59"/>
    <path id="Trazado_609157" data-name="Trazado 609157" d="M160.462,74.362l.006-16.892c-1.83,0-3.659,0-5.488.02-.416.005-.549-.1-.558-.539-.041-1.885-.057-1.886,1.837-1.884q2.105,0,4.21.011V52.641c-1.83,0-3.659,0-5.488.02-.416.005-.549-.1-.558-.539-.041-1.885-.057-1.886,1.837-1.884q2.105,0,4.21.011l-.006-2.4c-3.366-.008-6.732,0-10.1-.04-.636-.008-.778.167-.776.787.024,6.657.015,13.315.015,19.972,0,1.759.012,3.517-.009,5.275-.005.422.109.557.544.554,3.441-.024,6.882-.025,10.324-.033" transform="translate(-119.418 -38.163)" fill="#c08d59"/>
    <path id="Trazado_609158" data-name="Trazado 609158" d="M192.191,127.015c4.827-.024,9.654-.01,14.481-.015q5.693,0,11.387-.023,0-3,0-5.99c-1.131-.008-2.262-.012-3.393-.025-.981-.011-1.421-.449-1.426-1.433q-.012-2.188,0-4.376c.005-.986.443-1.421,1.426-1.432,1.131-.013,2.262-.017,3.394-.025q0-2.995,0-5.99c-6.184-.008-12.368-.005-18.552-.039-.629,0-.778.149-.774.776.029,4.877.018,9.754.015,14.632,0,1.082-.426,1.507-1.5,1.511-1.332,0-2.665,0-4,0-1.755,0-1.727,0-1.76,1.734-.011.572.145.7.7.694m8.976-15.551c.009-.921.466-1.357,1.416-1.364,1.132-.009,2.263,0,3.4,0,1.106,0,2.213,0,3.32,0s1.518.417,1.524,1.488c.006,1.106.028,2.214,0,3.319a4.706,4.706,0,0,1-3.072,4.5c-.417.176-.588.35-.553.8.048.623-.2,1.431.111,1.825.33.422,1.174.126,1.791.124.443,0,.527.149.532.558.024,1.871.037,1.871-1.846,1.871-1.609,0-3.219-.016-4.828.01-.449.007-.594-.088-.595-.572,0-1.837-.023-1.861,1.791-1.839.543.006.628-.16.659-.668.07-1.178-.041-2.007-1.388-2.594a4.077,4.077,0,0,1-2.243-3.84c-.044-1.205-.021-2.414-.008-3.621" transform="translate(-152.866 -85.949)" fill="#f8d08a"/>
    <path id="Trazado_609159" data-name="Trazado 609159" d="M169.848,191.4c-.505-.373-1.49-.1-2.265-.1a1.272,1.272,0,0,1,.251.992q.009,15.888,0,31.776a1.272,1.272,0,0,1-.251.992,15.394,15.394,0,0,1,1.581.034c.692.082.86-.165.858-.852-.023-10.231-.013-20.462-.023-30.693,0-.742.335-1.79-.151-2.148" transform="translate(-133.783 -152.634)" fill="#ba9c68"/>
    <path id="Trazado_609160" data-name="Trazado 609160" d="M167.834,224.431q.009-15.888,0-31.776a1.272,1.272,0,0,0-.251-.992v33.76a1.271,1.271,0,0,0,.251-.992" transform="translate(-133.783 -153.002)" fill="#ba9c68"/>
    <path id="Trazado_609161" data-name="Trazado 609161" d="M349.44,215.222c-.509-.428-1.488-.119-2.262-.1a1.27,1.27,0,0,1,.251.992q.009,13.473,0,26.947a1.271,1.271,0,0,1-.251.992,15.085,15.085,0,0,1,1.579.034c.705.086.86-.187.859-.864-.023-8.613-.011-17.226-.023-25.84,0-.742.336-1.747-.153-2.158" transform="translate(-277.156 -171.628)" fill="#906b43"/>
    <path id="Trazado_609162" data-name="Trazado 609162" d="M347.429,243.545q.009-13.473,0-26.947a1.271,1.271,0,0,0-.251-.992v28.931a1.27,1.27,0,0,0,.251-.992" transform="translate(-277.156 -172.115)" fill="#906b43"/>
    <path id="Trazado_609163" data-name="Trazado 609163" d="M36.588,16.773c1.986-.042,3.974-.016,5.961-.016s3.974-.014,5.961.01c.477.006.661-.108.646-.621-.036-1.206-.029-2.415,0-3.622.01-.447-.1-.609-.583-.607q-6.074.028-12.149,0c-.5,0-.575.2-.567.622.022,1.157.037,2.315,0,3.47-.021.575.119.777.737.763" transform="translate(-28.618 -9.513)" fill="#906b43"/>
    <path id="Trazado_609164" data-name="Trazado 609164" d="M127.381,74.395c.562.01.706-.133.7-.7-.027-4.171-.014-8.342-.014-12.513V49.5c0-1.685,0-1.652-1.651-1.7-.627-.017-.781.147-.779.777q.036,12.061.016,24.122c0,1.692,0,1.666,1.727,1.7" transform="translate(-100.299 -38.157)" fill="#a7afbb"/>
    <path id="Trazado_609165" data-name="Trazado 609165" d="M203.561,49.927c-.018.014-.036.024-.054.036v2.3c.015.01.031.018.046.029a3.622,3.622,0,0,1,.019,2.446c-.021.018-.043.032-.065.047V57.1a.805.805,0,0,1,.068.05,1.961,1.961,0,0,1,.178,1.1q.006,7.317,0,14.635a1.489,1.489,0,0,1-.251,1.145c.552.008,1.108-.025,1.655.034.64.069.784-.169.782-.788-.021-7.834-.009-15.667-.021-23.5,0-.742.336-1.747-.153-2.158-.509-.428-1.488-.119-2.262-.1a3.072,3.072,0,0,1,.06,2.41" transform="translate(-162.457 -37.834)" fill="#906b43"/>
    <path id="Trazado_609166" data-name="Trazado 609166" d="M203.752,111.309q.009-7.317,0-14.635a1.96,1.96,0,0,0-.178-1.1c-.022-.019-.045-.034-.068-.05v.039l-.006,16.892a1.489,1.489,0,0,0,.251-1.145" transform="translate(-162.457 -76.255)" fill="#906b43"/>
    <path id="Trazado_609167" data-name="Trazado 609167" d="M203.507,50.406v.044c.018-.012.036-.022.054-.036A3.071,3.071,0,0,0,203.5,48l.006,2.4" transform="translate(-162.457 -38.321)" fill="#906b43"/>
    <path id="Trazado_609168" data-name="Trazado 609168" d="M203.6,74.029a3.623,3.623,0,0,0-.019-2.446c-.015-.011-.03-.019-.046-.029v2.522c.022-.016.044-.029.065-.047" transform="translate(-162.481 -57.121)" fill="#906b43"/>
    <path id="Trazado_609169" data-name="Trazado 609169" d="M162.133,16.775c3.444-.024,6.887-.024,10.331-.032V11.96c-3.444-.008-6.888-.008-10.331-.032-.454,0-.541.174-.534.576q.03,1.847,0,3.7c-.007.4.08.579.534.576" transform="translate(-129.006 -9.522)" fill="#906b43"/>
    <path id="Trazado_609170" data-name="Trazado 609170" d="M88.064,191.5q-1.881.041-3.765,0c-.436-.01-.544.135-.537.552.023,1.43.009,2.861.009,4.292s.016,2.862-.01,4.292c-.008.431.119.553.546.543q1.881-.041,3.765,0c.436.01.54-.136.537-.551q-.025-4.292,0-8.584c0-.43-.119-.552-.546-.543" transform="translate(-66.867 -152.868)" fill="#a7afbb"/>
    <path id="Trazado_609171" data-name="Trazado 609171" d="M114.351,16.762c1-.037,2.007-.011,3.01-.011.978,0,1.958-.021,2.935.009.459.014.662-.07.643-.6-.043-1.228-.028-2.458-.005-3.688.007-.4-.076-.567-.527-.562-2.057.024-4.115.028-6.171,0-.5-.007-.573.169-.564.6.026,1.2.041,2.409-.005,3.612-.022.561.186.656.683.638" transform="translate(-90.741 -9.506)" fill="#a7afbb"/>
    <path id="Trazado_609172" data-name="Trazado 609172" d="M263.837,222.711q1.956-.029,3.914,0c.363.005.472-.11.465-.469-.021-1.053-.007-2.107-.007-3.161s-.013-2.108.007-3.161c.007-.359-.1-.474-.465-.469q-1.956.028-3.914,0c-.363-.005-.467.11-.465.468q.022,3.161,0,6.322c0,.358.1.474.465.469" transform="translate(-210.253 -171.992)" fill="#a7afbb"/>
    <path id="Trazado_609173" data-name="Trazado 609173" d="M267.748,323.2q-1.956.028-3.914,0c-.363-.005-.472.11-.465.469.021,1.053.007,2.107.007,3.161s.013,2.108-.007,3.161c-.007.359.1.473.466.468q1.956-.028,3.914,0c.363.005.467-.111.465-.469q-.022-3.161,0-6.322c0-.359-.1-.473-.465-.468" transform="translate(-210.251 -258.003)" fill="#a7afbb"/>
    <path id="Trazado_609174" data-name="Trazado 609174" d="M323.476,112.633a1.087,1.087,0,0,1-.245.845c.627.008,1.255-.007,1.88.031.424.026.564-.108.552-.542-.029-1.078.01-2.158-.017-3.237-.019-.742.336-1.786-.153-2.143-.507-.371-1.489-.093-2.263-.1a1.086,1.086,0,0,1,.245.845q.016,2.15,0,4.3" transform="translate(-258.039 -85.731)" fill="#ba9c68"/>
    <path id="Trazado_609175" data-name="Trazado 609175" d="M323.476,113.007q.016-2.15,0-4.3a1.086,1.086,0,0,0-.245-.845v5.99a1.087,1.087,0,0,0,.245-.845" transform="translate(-258.039 -86.105)" fill="#ba9c68"/>
    <path id="Trazado_609176" data-name="Trazado 609176" d="M323.476,178.476a1.087,1.087,0,0,1-.245.845c.627.008,1.255-.007,1.88.031.424.026.564-.108.552-.542-.029-1.078.01-2.158-.017-3.237-.019-.742.336-1.786-.153-2.143-.507-.371-1.489-.093-2.263-.1a1.086,1.086,0,0,1,.245.845q.016,2.15,0,4.3" transform="translate(-258.039 -138.292)" fill="#ba9c68"/>
    <path id="Trazado_609177" data-name="Trazado 609177" d="M323.476,178.85q.016-2.15,0-4.3a1.086,1.086,0,0,0-.245-.845v5.99a1.087,1.087,0,0,0,.245-.845" transform="translate(-258.039 -138.666)" fill="#ba9c68"/>
    <path id="Trazado_609178" data-name="Trazado 609178" d="M215.475,16.757c.628.008,1.257,0,1.884.027.365.014.552-.076.545-.5q-.031-1.923,0-3.846c.007-.42-.181-.51-.545-.5-.628.024-1.256.02-1.884.027a10.81,10.81,0,0,1,0,4.783" transform="translate(-172.016 -9.536)" fill="#6d5032"/>
    <path id="Trazado_609179" data-name="Trazado 609179" d="M215.475,12.087V16.87a10.81,10.81,0,0,0,0-4.783" transform="translate(-172.016 -9.649)" fill="#6d5032"/>
    <path id="Trazado_609180" data-name="Trazado 609180" d="M315.521,149.576c-.824.044-1.652.012-2.479.012-1.825,0-1.81,0-1.8,1.831,0,.442.082.632.571.594.6-.046,1.2-.011,1.8-.011h.676c1.826,0,1.811,0,1.8-1.831,0-.441-.083-.621-.571-.6" transform="translate(-248.465 -119.403)" fill="#a7afbb"/>
    <path id="Trazado_609181" data-name="Trazado 609181" d="M66.539,335.147c-2.991.023-5.981.012-8.972.012H49.575c-1.756,0-1.729,0-1.761,1.732-.011.566.136.7.7.7,5.63-.023,11.259-.014,16.889-.014,1.771,0,1.751,0,1.759-1.807,0-.493-.13-.623-.621-.619" transform="translate(-38.17 -267.543)"/>
    <path id="Trazado_609182" data-name="Trazado 609182" d="M46.738,268.694c.359-.4.741-.781,1.254-1.317v6.3c0,1.709,0,1.681,1.695,1.719.593.013.743-.149.735-.737-.036-2.351-.015-4.7-.015-7.054l.218-.127c.42.467.785,1.233,1.273,1.322.583.106.921-.775,1.422-1.161.306-.237.309-.429.018-.711-1.064-1.031-2.095-2.1-3.153-3.131a1.207,1.207,0,0,0-1.961-.007c-.738.717-1.458,1.453-2.187,2.181-1.412,1.411-1.405,1.4.1,2.73.247.219.389.232.6-.008" transform="translate(-35.918 -210.182)"/>
    <path id="Trazado_609183" data-name="Trazado 609183" d="M110.131,263.758a1.187,1.187,0,0,0-1.906.017c-.793.769-1.566,1.559-2.347,2.339-1.168,1.167-1.152,1.152.014,2.358.384.4.66.54,1.034.02.258-.359.568-.68.854-1.018l.2.157v5.949c0,1.828,0,1.8,1.826,1.814.527,0,.6-.183.6-.642-.023-1.858-.009-3.716-.009-5.574V267.49c.166.128.227.168.279.217,1.391,1.326,1.38,1.316,2.681-.1.257-.28.23-.422-.017-.663-1.076-1.054-2.127-2.134-3.206-3.184" transform="translate(-83.831 -210.179)"/>
    <path id="Trazado_609184" data-name="Trazado 609184" d="M180.557,60.209a1.778,1.778,0,0,1-1.005.161c-1.3.01-2.61-.008-3.914.008-.785.01-.855.1-.856.961s.068.963.842.973c1.3.017,2.61,0,3.915.009a1.832,1.832,0,0,1,1.019.162,2.81,2.81,0,0,1,0-2.274" transform="translate(-139.529 -48.064)"/>
    <path id="Trazado_609185" data-name="Trazado 609185" d="M178.514,62.043c-1.3-.009-2.61.009-3.915-.008-.774-.01-.843-.105-.842-.973s.071-.951.856-.961c1.3-.016,2.61,0,3.914-.008a1.778,1.778,0,0,0,1.005-.161c.008-.02.014-.04.023-.059q-2.105-.006-4.21-.011c-1.893,0-1.877,0-1.837,1.884.009.436.142.544.558.539,1.829-.023,3.659-.016,5.488-.02-.009-.019-.015-.039-.023-.059a1.836,1.836,0,0,0-1.019-.162" transform="translate(-138.506 -47.786)"/>
    <path id="Trazado_609186" data-name="Trazado 609186" d="M202.466,62.421l.023.015v-2.3l-.023.016a2.811,2.811,0,0,0,0,2.274" transform="translate(-161.439 -48.003)"/>
    <path id="Trazado_609187" data-name="Trazado 609187" d="M203.417,71.482c.008.02.014.039.023.059V71.5l-.023-.015" transform="translate(-162.39 -57.063)"/>
    <path id="Trazado_609188" data-name="Trazado 609188" d="M203.417,59.974l.023-.016v-.044c-.009.02-.015.04-.023.059" transform="translate(-162.39 -47.829)"/>
    <path id="Trazado_609189" data-name="Trazado 609189" d="M180.557,84.137a1.7,1.7,0,0,1-.987.164c-1.3.01-2.6-.006-3.906.008-.808.009-.878.1-.884.93-.006.9.069,1,.886,1,1.3.015,2.6,0,3.906.008a1.685,1.685,0,0,1,.985.166,2.811,2.811,0,0,1,0-2.281" transform="translate(-139.529 -67.165)"/>
    <path id="Trazado_609190" data-name="Trazado 609190" d="M178.55,85.986c-1.3-.011-2.6.006-3.906-.008-.817-.009-.892-.107-.886-1,.006-.834.076-.921.884-.929,1.3-.014,2.6,0,3.906-.008a1.7,1.7,0,0,0,.987-.164c.008-.019.014-.038.022-.056q-2.105-.006-4.21-.011c-1.893,0-1.877,0-1.837,1.884.009.436.142.544.558.539,1.829-.023,3.659-.016,5.488-.02-.008-.018-.014-.037-.021-.055a1.683,1.683,0,0,0-.985-.166" transform="translate(-138.506 -66.899)"/>
    <path id="Trazado_609191" data-name="Trazado 609191" d="M202.467,86.355l.021.016V84.058l-.022.016a2.812,2.812,0,0,0,0,2.281" transform="translate(-161.439 -67.102)"/>
    <path id="Trazado_609192" data-name="Trazado 609192" d="M203.444,83.9v-.04c-.008.019-.014.038-.022.056l.022-.016" transform="translate(-162.394 -66.943)"/>
    <path id="Trazado_609193" data-name="Trazado 609193" d="M203.425,95.444c.008.018.013.037.021.055V95.46l-.021-.016" transform="translate(-162.396 -76.192)"/>
    <path id="Trazado_609194" data-name="Trazado 609194" d="M241.66,128.534c1.348.587,1.458,1.416,1.388,2.594-.03.508-.116.675-.659.668-1.814-.022-1.794,0-1.791,1.839,0,.483.146.579.595.571,1.609-.027,3.219-.01,4.828-.01,1.883,0,1.87,0,1.846-1.871-.005-.409-.089-.56-.532-.558-.617,0-1.462.3-1.791-.124-.308-.394-.063-1.2-.111-1.825-.034-.45.137-.624.553-.8a4.706,4.706,0,0,0,3.072-4.5c.033-1.106.01-2.213,0-3.319-.005-1.072-.43-1.485-1.524-1.489s-2.213,0-3.32,0c-1.132,0-2.263-.006-3.4,0-.95.007-1.407.443-1.416,1.364-.012,1.207-.036,2.416.008,3.621a4.077,4.077,0,0,0,2.243,3.84m.316-6.288c.467-.381,1.479-.094,2.251-.1.791.009,1.926-.374,2.286.134.457.647.21,1.743.1,2.628a2.332,2.332,0,0,1-3.133,1.874,2.282,2.282,0,0,1-1.653-2.091,1.137,1.137,0,0,1,0-.226c.049-.766-.335-1.819.155-2.219" transform="translate(-191.109 -95.559)"/>
    <path id="Trazado_609195" data-name="Trazado 609195" d="M260.412,133.69a4.421,4.421,0,0,1-.763,2.236,2.332,2.332,0,0,0,3.133-1.874c.112-.885.359-1.981-.1-2.628-.359-.508-1.495-.125-2.285-.134,0,.8-.015,1.6.013,2.4" transform="translate(-207.281 -104.703)" fill="#7d838c"/>
    <path id="Trazado_609196" data-name="Trazado 609196" d="M251.052,133.74a1.136,1.136,0,0,0,0,.225,2.282,2.282,0,0,0,1.654,2.091.362.362,0,0,1-.015-.291,7.027,7.027,0,0,0,.564-3.646.915.915,0,0,1,.2-.7c-.772.007-1.784-.28-2.251.1-.49.4-.106,1.453-.155,2.219" transform="translate(-200.34 -104.833)" fill="#a7afbb"/>
    <path id="Trazado_609197" data-name="Trazado 609197" d="M260.037,132.5a7.028,7.028,0,0,1-.564,3.646.36.36,0,0,0,.015.291,4.423,4.423,0,0,0,.763-2.236c-.028-.8-.011-1.6-.013-2.4a.914.914,0,0,0-.2.7" transform="translate(-207.12 -105.217)" fill="#a7afbb"/>
  </g>
</svg>
