<svg id="Grupo_870095" data-name="Grupo 870095" xmlns="http://www.w3.org/2000/svg" xmlns:xlink="http://www.w3.org/1999/xlink" width="74.838" height="74.86" viewBox="0 0 74.838 74.86">
  <defs>
    <clipPath id="clip-path">
      <rect id="Rectángulo_290785" data-name="Rectángulo 290785" width="74.838" height="74.861" fill="none"/>
    </clipPath>
  </defs>
  <g id="Grupo_870094" data-name="Grupo 870094" clip-path="url(#clip-path)">
    <path id="Trazado_605113" data-name="Trazado 605113" d="M43.308.391a17.085,17.085,0,0,0-8.317,3.851A16.844,16.844,0,0,0,29.05,15.526a58.961,58.961,0,0,0-.121,6.642,11.419,11.419,0,0,1-2.4,7.131,11.08,11.08,0,0,0-2.334,4.651,8.771,8.771,0,0,0,5.081,9.507c.278.118.73.137.737.49.009.428-.468.5-.787.65A59.529,59.529,0,0,0,22.929,47.5a10.2,10.2,0,0,0-4.847,7.621,34.9,34.9,0,0,0-.122,4.523c-.022,2.753.017,5.506-.018,8.258-.013,1.025-.05,2.01.961,2.585h0a1.229,1.229,0,0,0,1.066-1.407q-.026-6.1,0-12.2a8.61,8.61,0,0,1,5.6-8.506c2.1-.905,4.194-1.81,6.278-2.745.539-.242.645-.12.637.434-.027,1.754-.035,3.508,0,5.261.013.582-.2.694-.721.672-.851-.037-1.7-.022-2.557-.006a3.2,3.2,0,0,0-3.3,3.61c.393,4.094.847,8.183,1.279,12.273.153,1.452.3,2.905.479,4.354.048.393-.111.437-.436.435-2.753-.017-5.506-.023-8.259-.032-.013.028-.027.057-.042.085a2.15,2.15,0,0,1-1.211.175q-7.123.007-14.246,0a5.908,5.908,0,0,0-.948.038c-.455.074-.8.306-.811.792-.013.527.349.769.829.853a4.206,4.206,0,0,0,.729.038q35.543,0,71.086.017a6.079,6.079,0,0,0,1.858-.511v-.731a1.389,1.389,0,0,0-1.528-.728c-.536.085-.682-.1-.679-.655q.038-7.635.01-15.27A10.749,10.749,0,0,0,67.1,46.22c-1.706-.754-3.428-1.471-5.277-2.262a9,9,0,0,0,4.563-3.447,8.68,8.68,0,0,0-.265-10.349,12.916,12.916,0,0,1-2.942-8.773,38.656,38.656,0,0,0-.247-7.215A17.368,17.368,0,0,0,49.176.287,5.435,5.435,0,0,1,47.57,0H44.062c-.088.442-.481.341-.754.391m-15.4,39.737a6.672,6.672,0,0,1-.288-8.915A14.749,14.749,0,0,0,30.941,20.77c-.065-1.188-.01-1.191,1.167-1.191,1.241,0,1.241,0,1.241,1.206v4.088a27.292,27.292,0,0,0,.243,5.384,10.585,10.585,0,0,0,4.929,6.854.72.72,0,0,1,.393.941,5.133,5.133,0,0,1-1.882,2.787,7.053,7.053,0,0,1-9.124-.711m6.742,9.754c-.066-.612.259-.534.644-.436a41.185,41.185,0,0,0,5.884,1.024A42.093,42.093,0,0,0,56.3,49.311c.866-.225.876-.23.86.689-.011.628.267,1.446-.107,1.835-.411.427-1.244.135-1.89.139-3.092.016-6.183.007-9.275.007-3.505,0-7.011-.014-10.516.014-.577,0-.78-.149-.719-.727a6.57,6.57,0,0,0,0-1.386M55.39,47.29A40.757,40.757,0,0,1,35.255,47.2a.668.668,0,0,1-.61-.779c.014-2-.023-2.039,1.83-2.789a8.049,8.049,0,0,0,4.066-3.583.729.729,0,0,1,.023-.143c.193-.519.251-1.238.625-1.5.316-.217,1,.146,1.521.18a26.786,26.786,0,0,0,7.607-.231c.249-.055.4-.073.473.24a7.9,7.9,0,0,0,1.618,3.053,10.781,10.781,0,0,0,4.11,2.4.855.855,0,0,1,.658.947c-.033,1.834,0,1.842-1.788,2.284m9.426,8.192c-.183,2.036-.4,4.069-.62,6.1-.373,3.509-.765,7.016-1.117,10.527-.045.451-.174.573-.607.555-.923-.038-1.849-.025-2.774-.033-.243.008-.486.023-.729.023q-14.14,0-28.281.012c-.557,0-.822-.049-.888-.73-.424-4.41-.912-8.814-1.379-13.22-.1-.968-.216-1.936-.3-2.906-.115-1.33.182-1.637,1.548-1.637q4.787,0,9.573,0,10.6,0,21.192,0c.29,0,.581.028.871.043.777-.014,1.555-.05,2.332-.037a1.055,1.055,0,0,1,1.178,1.3M65.673,48a14.762,14.762,0,0,1,1.907.907,8.314,8.314,0,0,1,4.233,7.3c.064,5.286.012,10.573.03,15.86,0,.485-.136.607-.608.6q-2.7-.04-5.407,0c-.488.008-.619-.127-.565-.61.379-3.386.737-6.775,1.1-10.164.215-2.009.459-4.015.631-6.028.208-2.433-1.161-3.876-3.609-3.881-1.169,0-2.338,0-3.508,0-.238,0-.518.047-.518-.331,0-2.088,0-4.175,0-6.359,2.169.928,4.245,1.809,6.314,2.7M64.292,31.361a6.241,6.241,0,0,1,.817,6.922,6.453,6.453,0,0,1-5.8,3.884,7.194,7.194,0,0,1-4.442-1.327,4.489,4.489,0,0,1-1.726-2.12c-.487-1.132-.459-1.164.526-1.848a10.725,10.725,0,0,0,4.808-9.243c.015-2.386.021-4.772-.009-7.158-.007-.578.092-.854.745-.769a4.646,4.646,0,0,0,1.308-.049c.413-.065.509.079.494.456-.022.559-.006,1.12-.006,1.794a13.9,13.9,0,0,0,3.283,9.457M56.285,6.285A15.244,15.244,0,0,1,61.02,16.8c.034.637-.307.673-.728.694a12.018,12.018,0,0,1-7.859-2.161,1.235,1.235,0,0,0-1.763.052c-.338.867-.248,1.2.493,1.744a12.721,12.721,0,0,0,4.6,2.12c.436.105.528.288.524.689-.018,1.656-.01,3.313-.006,4.97a1.834,1.834,0,0,1-.167.773,8.336,8.336,0,0,1-3.566,3.837c-.343.2-.55.231-.82-.161a2.967,2.967,0,0,0-2.555-1.314c-.925,0-1.852-.026-2.776.012a3.187,3.187,0,0,0-.429,6.315,13.319,13.319,0,0,0,3.639.03,2.963,2.963,0,0,0,2.455-1.834,1.509,1.509,0,0,1,.771-.789,22.943,22.943,0,0,0,3.184-2.159,3.028,3.028,0,0,1-.356,1.439,8.309,8.309,0,0,1-7.486,5.416A20.043,20.043,0,0,1,42,36.237a8.493,8.493,0,0,1-6.435-7.916c-.076-2.8-.008-5.6-.039-8.4-.005-.508.29-.536.624-.594A29.025,29.025,0,0,0,47.544,14.7c.544-.366,1.07-.758,1.6-1.138a30.841,30.841,0,0,0,6.555-7.2c.187-.288.3-.351.581-.081M50.168,31.205a.937.937,0,0,1-.906,1.037,11.068,11.068,0,0,1-1.45.013c0,.008,0,.016,0,.024-.388,0-.778.026-1.162-.006a1.108,1.108,0,0,1-1.087-1.064,1.061,1.061,0,0,1,1.144-.967c.8-.013,1.6,0,2.4,0a.974.974,0,0,1,1.063.965m3.51-26.89c.461.262.476.451.193.871A27.253,27.253,0,0,1,34.627,17.367a1.482,1.482,0,0,1-.218.017h-1.46a11.448,11.448,0,0,0-1.313.011c-.6.071-.744-.166-.7-.731.481-6.234,3.5-10.768,9.23-13.266a14.463,14.463,0,0,1,13.514.916" transform="translate(-1.378)"/>
    <path id="Trazado_605114" data-name="Trazado 605114" d="M109.617.154C102.428,1.441,97.671,5.528,95.427,12.5a23.671,23.671,0,0,0-.693,7.379,28.912,28.912,0,0,1-.083,3.866,13.185,13.185,0,0,1-2.923,6.336,8.851,8.851,0,0,0,3.763,13.69c.15.06.406.008.459.3-1.932.846-3.885,1.642-5.786,2.547a10.476,10.476,0,0,0-6.372,9.823c-.1,4.21-.024,8.424-.02,12.636,0,.9.237,1.181,1.131,1.419-1.012-.575-.974-1.56-.961-2.585.035-2.752,0-5.505.018-8.258a34.938,34.938,0,0,1,.122-4.523,10.2,10.2,0,0,1,4.847-7.62A59.55,59.55,0,0,1,95.221,44.6c.319-.151.8-.222.787-.65-.007-.354-.459-.373-.737-.49a8.771,8.771,0,0,1-5.081-9.507,11.08,11.08,0,0,1,2.334-4.65,11.42,11.42,0,0,0,2.4-7.131,58.96,58.96,0,0,1,.121-6.642A16.845,16.845,0,0,1,100.99,4.243,17.082,17.082,0,0,1,109.307.392c.274-.05.667.051.754-.391-.091.214-.29.126-.444.153" transform="translate(-67.377 -0.001)"/>
    <path id="Trazado_605115" data-name="Trazado 605115" d="M1.894,373.672a4.185,4.185,0,0,1-.729-.038c-.48-.084-.843-.326-.829-.853.012-.486.356-.718.811-.792a5.887,5.887,0,0,1,.948-.038q7.123,0,14.246,0a2.15,2.15,0,0,0,1.211-.174c.015-.028.028-.057.042-.085h-.068c-.267.009-.534.026-.8.026q-7.667,0-15.334,0c-.807,0-1.269.313-1.37.91-.132.776.431,1.281,1.438,1.281q35.963,0,71.925.012a1.532,1.532,0,0,0,1.456-.743,6.078,6.078,0,0,1-1.858.511q-35.543-.028-71.086-.017" transform="translate(0 -299.059)"/>
    <path id="Trazado_605116" data-name="Trazado 605116" d="M11.011.455A12.454,12.454,0,0,0,3.5,5.293a12.356,12.356,0,0,0,.2,15.018,12.476,12.476,0,0,0,10.209,4.93c2.874.011,5.747,0,8.621,0A5.073,5.073,0,0,0,23.4,25.2a1.279,1.279,0,0,0,.627-2.27,7.984,7.984,0,0,0-1.1-.721c-.591-.36-.624-.551-.143-1.072A12.008,12.008,0,0,0,25.8,15.3,12.113,12.113,0,0,0,22.644,4.168,12.214,12.214,0,0,0,15.426.338C15.213.3,14.9.371,14.886,0H11.817c-.089.465-.511.392-.806.455m.969,1.863a9.292,9.292,0,0,1,2.181-.092,10.6,10.6,0,0,1,9.783,8.787,10.422,10.422,0,0,1-3.213,9.4c-.984.963-1.046,1.647-.163,2.8H18.532c-2.477-.038-4.971.276-7.424-.277A10.514,10.514,0,0,1,11.98,2.318" transform="translate(-0.849)"/>
    <path id="Trazado_605117" data-name="Trazado 605117" d="M10.458.222A12.7,12.7,0,0,0,.293,14.618,12.825,12.825,0,0,0,11.177,25.284c3.808.378,7.638.093,11.457.132a1.334,1.334,0,0,0,1.334-1.054,1.408,1.408,0,0,0-.584-1.666c-.5-.339-1.025-.631-1.557-.955.1-.115.162-.189.227-.26A12.725,12.725,0,0,0,15.842.353,8.479,8.479,0,0,1,14.175,0c.016.371.326.3.54.338a12.215,12.215,0,0,1,7.218,3.829A12.114,12.114,0,0,1,25.085,15.3a12.009,12.009,0,0,1-3.006,5.84c-.481.521-.448.712.143,1.072a7.964,7.964,0,0,1,1.1.72,1.279,1.279,0,0,1-.628,2.27,5.072,5.072,0,0,1-.875.039c-2.874,0-5.747.009-8.621,0A12.474,12.474,0,0,1,2.988,20.312a12.356,12.356,0,0,1-.2-15.018A12.452,12.452,0,0,1,10.3.456c.3-.062.717.011.806-.455-.146.271-.433.175-.648.221" transform="translate(-0.137 -0.001)"/>
    <path id="Trazado_605118" data-name="Trazado 605118" d="M89.78,261.4a1.945,1.945,0,0,1,.964-.128c2.144,0,4.287,0,6.431,0,1.033,0,1.053-.006.947-.992-.528-4.914-1.008-9.834-1.57-14.744a10.177,10.177,0,0,1-.021-2.044,3.364,3.364,0,0,1,3.011-2.822c.852-.036,1.7,0,2.557-.013.893-.011.977-.087.982-.948q.013-2.156,0-4.313c0-.761-.119-.851-.8-.543-2.111.948-4.267,1.793-6.357,2.788a8.3,8.3,0,0,0-4.964,7.953c-.057,3.971-.013,7.943-.014,11.914a4.275,4.275,0,0,1-.05.947,1.042,1.042,0,0,1-1.207.864c.047.027.093.054.144.078a3.5,3.5,0,0,1-.049,2" transform="translate(-72.16 -188.828)" fill="#8694dd"/>
    <path id="Trazado_605119" data-name="Trazado 605119" d="M89.829,360.819c-.051-.025-.1-.052-.144-.078q0,1.07,0,2.139a.912.912,0,0,1,.1-.058,3.5,3.5,0,0,0,.049-2" transform="translate(-72.159 -290.251)" fill="#8694dd"/>
    <path id="Trazado_605120" data-name="Trazado 605120" d="M90.892,257.014a4.275,4.275,0,0,0,.05-.947c0-3.971-.043-7.943.014-11.914A8.3,8.3,0,0,1,95.92,236.2c2.09-.995,4.246-1.839,6.357-2.788.685-.308.8-.218.8.543q.013,2.156,0,4.312c-.005.861-.089.937-.982.948-.853.011-1.706-.024-2.557.013a3.364,3.364,0,0,0-3.011,2.821,10.177,10.177,0,0,0,.021,2.044c.562,4.911,1.042,9.83,1.57,14.744.106.986.087.991-.947.992-2.144,0-4.287,0-6.431,0a1.946,1.946,0,0,0-.964.128c-.008.019-.018.039-.027.058,2.753.009,5.506.014,8.259.032.324,0,.484-.042.436-.435-.178-1.449-.326-2.9-.479-4.354-.431-4.09-.886-8.179-1.279-12.273a3.2,3.2,0,0,1,3.3-3.61c.852-.016,1.706-.031,2.557.006.517.022.734-.089.721-.672-.039-1.753-.031-3.508,0-5.262.009-.554-.1-.676-.637-.434-2.084.935-4.181,1.839-6.278,2.745a8.61,8.61,0,0,0-5.6,8.506q-.02,6.1,0,12.2a1.229,1.229,0,0,1-1.066,1.407,1.042,1.042,0,0,0,1.207-.864" transform="translate(-72.16 -187.388)" fill="#8694dd"/>
    <path id="Trazado_605121" data-name="Trazado 605121" d="M89.752,371.452c.009-.019.019-.039.027-.058a.888.888,0,0,0-.1.058h.068" transform="translate(-72.159 -298.822)" fill="#8694dd"/>
    <path id="Trazado_605122" data-name="Trazado 605122" d="M169.635,284.169c.174-1.611.292-3.228.478-4.837a3.548,3.548,0,0,0-.158-2.054c-.291-.015-.581-.043-.872-.043q-10.6,0-21.192,0-4.787,0-9.573,0c-1.366,0-1.663.307-1.548,1.638.084.97.2,1.937.3,2.906.466,4.406.954,8.81,1.378,13.22.066.681.331.731.888.73q14.14-.022,28.281-.012c.243,0,.486-.015.729-.023.2-1.826.383-3.652.588-5.477.226-2.016.48-4.03.7-6.047m-14.505,6.451a4.129,4.129,0,0,1-4.181-4.141,4.162,4.162,0,1,1,4.181,4.141" transform="translate(-110.027 -223.06)" fill="#eeecee"/>
    <path id="Trazado_605123" data-name="Trazado 605123" d="M186.77,70.557a29.024,29.024,0,0,1-11.394,4.621c-.334.058-.63.086-.624.594.031,2.8-.038,5.6.039,8.4a8.493,8.493,0,0,0,6.435,7.916,20.041,20.041,0,0,0,6.181.232,8.31,8.31,0,0,0,7.486-5.416,3.03,3.03,0,0,0,.356-1.439,22.943,22.943,0,0,1-3.184,2.159,1.51,1.51,0,0,0-.771.79,2.962,2.962,0,0,1-2.455,1.834,13.3,13.3,0,0,1-3.639-.03,3.187,3.187,0,0,1,.429-6.315c.924-.038,1.85-.016,2.776-.012a2.966,2.966,0,0,1,2.554,1.313c.27.393.477.361.82.161a8.337,8.337,0,0,0,3.566-3.837,1.83,1.83,0,0,0,.167-.773c0-1.656-.012-3.313.006-4.97,0-.4-.088-.584-.524-.689a12.727,12.727,0,0,1-4.6-2.12c-.741-.545-.831-.877-.493-1.744l-1.522-1.816c-.535.38-1.061.772-1.6,1.138" transform="translate(-140.604 -55.854)" fill="#fecdbe"/>
    <path id="Trazado_605124" data-name="Trazado 605124" d="M151.228,25.467c-.044.564.1.8.7.731a11.488,11.488,0,0,1,1.313-.011H154.7a1.481,1.481,0,0,0,.218-.016,27.253,27.253,0,0,0,19.245-12.182c.283-.42.268-.608-.193-.871a14.463,14.463,0,0,0-13.514-.916c-5.732,2.5-8.749,7.032-9.23,13.266" transform="translate(-121.672 -8.802)" fill="#c49090"/>
    <path id="Trazado_605125" data-name="Trazado 605125" d="M296.723,238.151c0,.377.28.33.518.331,1.169,0,2.338,0,3.508,0,2.448,0,3.817,1.448,3.609,3.881-.172,2.013-.416,4.019-.631,6.028-.363,3.388-.721,6.777-1.1,10.164-.054.483.077.618.565.61q2.7-.042,5.407,0c.471.007.609-.115.608-.6-.018-5.287.035-10.574-.03-15.861a8.314,8.314,0,0,0-4.233-7.3,14.722,14.722,0,0,0-1.907-.907c-2.069-.9-4.145-1.776-6.314-2.7,0,2.184,0,4.272,0,6.359" transform="translate(-238.742 -186.499)" fill="#8694dd"/>
    <path id="Trazado_605126" data-name="Trazado 605126" d="M137.251,121.456a5.132,5.132,0,0,0,1.882-2.787.719.719,0,0,0-.393-.941,10.587,10.587,0,0,1-4.929-6.854,27.292,27.292,0,0,1-.243-5.384V101.4c0-1.206,0-1.206-1.241-1.206-1.178,0-1.233,0-1.167,1.191a14.751,14.751,0,0,1-3.322,10.442,6.672,6.672,0,0,0,.288,8.915,7.053,7.053,0,0,0,9.124.711" transform="translate(-101.597 -80.617)" fill="#c49090"/>
    <path id="Trazado_605127" data-name="Trazado 605127" d="M271.5,102.767c0-.675-.017-1.235.006-1.794.015-.377-.081-.521-.494-.456a4.631,4.631,0,0,1-1.308.049c-.653-.086-.752.191-.745.769.03,2.386.025,4.772.009,7.158a10.725,10.725,0,0,1-4.809,9.242c-.985.684-1.013.717-.526,1.848a4.488,4.488,0,0,0,1.726,2.12,7.194,7.194,0,0,0,4.442,1.327,6.453,6.453,0,0,0,5.8-3.884,6.241,6.241,0,0,0-.817-6.922,13.9,13.9,0,0,1-3.283-9.457" transform="translate(-211.873 -80.863)" fill="#c49090"/>
    <path id="Trazado_605128" data-name="Trazado 605128" d="M192.122,208.969a10.784,10.784,0,0,1-4.11-2.4,7.483,7.483,0,0,1-2.287.305,53,53,0,0,1-5.44-.134,8.977,8.977,0,0,1-4.14-1.776,8.05,8.05,0,0,1-4.066,3.583c-1.853.75-1.817.789-1.83,2.789a.668.668,0,0,0,.61.779,40.755,40.755,0,0,0,20.135.089c1.783-.443,1.755-.45,1.787-2.284a.855.855,0,0,0-.658-.947" transform="translate(-136.981 -164.91)" fill="#fecdbe"/>
    <path id="Trazado_605129" data-name="Trazado 605129" d="M244.469,38.73h0a3.238,3.238,0,0,1,1.523,1.816,1.235,1.235,0,0,1,1.763-.052,12.018,12.018,0,0,0,7.859,2.161c.421-.022.762-.057.728-.694a15.245,15.245,0,0,0-4.736-10.511c-.279-.271-.394-.208-.581.081a30.846,30.846,0,0,1-6.555,7.2" transform="translate(-196.699 -25.165)" fill="#b87f7f"/>
    <path id="Trazado_605130" data-name="Trazado 605130" d="M244.469,69.418h0l1.523,1.816a3.239,3.239,0,0,0-1.523-1.816" transform="translate(-196.699 -55.853)" fill="#b87f7f"/>
    <path id="Trazado_605131" data-name="Trazado 605131" d="M302.4,277.264c-.777-.013-1.554.023-2.332.037a1.3,1.3,0,0,1,.455,1.311c-.393,3.7-.768,7.4-1.173,11.1-.182,1.668-.353,3.337-.524,5.006a1.355,1.355,0,0,1-.365,1c.925.008,1.85,0,2.774.033.433.018.562-.1.607-.555.351-3.511.744-7.018,1.117-10.527.216-2.033.438-4.066.62-6.1a1.055,1.055,0,0,0-1.178-1.3" transform="translate(-240.142 -223.084)" fill="#e4e0e4"/>
    <path id="Trazado_605132" data-name="Trazado 605132" d="M299.352,289.876c.4-3.7.781-7.4,1.173-11.1a1.3,1.3,0,0,0-.455-1.311,3.549,3.549,0,0,1,.158,2.054c-.185,1.609-.3,3.226-.478,4.837-.218,2.017-.472,4.031-.7,6.047-.2,1.825-.393,3.651-.589,5.477a1.355,1.355,0,0,0,.365-1c.171-1.669.342-3.338.524-5.006" transform="translate(-240.142 -223.247)" fill="#e4e0e4"/>
    <path id="Trazado_605133" data-name="Trazado 605133" d="M170.944,254.52c3.505-.027,7.011-.014,10.516-.014,3.092,0,6.183.009,9.275-.007.647,0,1.48.288,1.89-.139.374-.389.1-1.207.107-1.835.016-.919.005-.914-.86-.689a42.093,42.093,0,0,1-15.12,1.158,41.179,41.179,0,0,1-5.884-1.023c-.384-.1-.71-.176-.644.436a6.569,6.569,0,0,1,0,1.386c-.061.578.142.731.719.727" transform="translate(-136.954 -202.526)" fill="#fdfdfd"/>
    <path id="Trazado_605134" data-name="Trazado 605134" d="M201.148,198.134a9.076,9.076,0,0,0,5.192,1.434,36.934,36.934,0,0,0,5.457-.171.7.7,0,0,1,.493.082,7.9,7.9,0,0,1-1.618-3.053c-.072-.313-.224-.3-.473-.24a26.784,26.784,0,0,1-7.607.231c-.524-.033-1.205-.4-1.521-.18-.374.257-.432.976-.625,1.5a.729.729,0,0,0-.023.143c.3-.089.506.124.725.26" transform="translate(-161.26 -157.824)" fill="#feaf9d"/>
    <path id="Trazado_605135" data-name="Trazado 605135" d="M210,206.783a7.484,7.484,0,0,0,2.287-.305.7.7,0,0,0-.494-.082,36.93,36.93,0,0,1-5.457.171,9.077,9.077,0,0,1-5.192-1.434c-.219-.136-.421-.349-.725-.26a8.977,8.977,0,0,0,4.14,1.776,53.058,53.058,0,0,0,5.44.134" transform="translate(-161.26 -164.824)" fill="#feaf9d"/>
    <path id="Trazado_605136" data-name="Trazado 605136" d="M227.26,154.741a1.061,1.061,0,0,0-1.144.967,1.108,1.108,0,0,0,1.087,1.064c.385.032.775.006,1.162.006,0-.008,0-.016,0-.024a11.034,11.034,0,0,0,1.45-.013.937.937,0,0,0,.906-1.037.974.974,0,0,0-1.063-.965c-.8,0-1.6-.011-2.4,0" transform="translate(-181.932 -124.498)" fill="#675d67"/>
    <path id="Trazado_605137" data-name="Trazado 605137" d="M11.257,21.195A10.562,10.562,0,0,0,19.309,31.98c2.453.553,4.947.24,7.424.278a2.566,2.566,0,0,1-.019-3.572,11.49,11.49,0,0,0,1.726-10.441,11.281,11.281,0,0,0-6.078-6.977,9.3,9.3,0,0,0-2.181.092,10.541,10.541,0,0,0-8.924,9.836m14.851-.515a1.076,1.076,0,1,1-1.031,1.084,1.051,1.051,0,0,1,1.031-1.084m-4.405,0a1.076,1.076,0,1,1-1.01,1.1,1.051,1.051,0,0,1,1.01-1.1m-5.393,1.009a1.076,1.076,0,1,1,1.044,1.141,1.049,1.049,0,0,1-1.044-1.141" transform="translate(-9.05 -9.041)" fill="#7ac9a5"/>
    <path id="Trazado_605138" data-name="Trazado 605138" d="M71.611,13.665a11.34,11.34,0,0,1,3.139,6.142,11.343,11.343,0,0,1-1.864,8.682c-.843,1.187-1.238,2.3-.4,3.61a.334.334,0,0,1,.017.282h2.036c-.883-1.157-.822-1.842.163-2.8a10.423,10.423,0,0,0,3.214-9.4,10.6,10.6,0,0,0-9.783-8.787,7.091,7.091,0,0,1,3.483,2.274" transform="translate(-54.816 -9.165)" fill="#57bd91"/>
    <path id="Trazado_605139" data-name="Trazado 605139" d="M74.206,18.367A11.491,11.491,0,0,1,72.48,28.808a2.566,2.566,0,0,0,.019,3.572.333.333,0,0,0-.017-.283c-.833-1.315-.438-2.423.4-3.61a11.34,11.34,0,0,0,1.864-8.682,11.339,11.339,0,0,0-3.139-6.142,7.091,7.091,0,0,0-3.483-2.274,11.283,11.283,0,0,1,6.078,6.977" transform="translate(-54.816 -9.164)" fill="#57bd91"/>
    <path id="Trazado_605140" data-name="Trazado 605140" d="M213.584,303.152a4.172,4.172,0,0,0-4.162,4.181,4.162,4.162,0,1,0,8.323-.055,4.205,4.205,0,0,0-4.161-4.126m-.025,6.127a1.937,1.937,0,0,1-1.942-1.936,1.986,1.986,0,0,1,1.975-2,2.014,2.014,0,0,1,1.957,1.957,1.968,1.968,0,0,1-1.991,1.975" transform="translate(-168.5 -243.915)"/>
    <path id="Trazado_605141" data-name="Trazado 605141" d="M38.187,61.709a1.076,1.076,0,1,0-1.044-1.141,1.049,1.049,0,0,0,1.044,1.141" transform="translate(-29.883 -47.92)" fill="#010101"/>
    <path id="Trazado_605142" data-name="Trazado 605142" d="M60.722,61.706a1.077,1.077,0,1,0-1.141-1.045,1.049,1.049,0,0,0,1.141,1.045" transform="translate(-47.939 -47.918)" fill="#010101"/>
    <path id="Trazado_605143" data-name="Trazado 605143" d="M83.141,61.706a1.076,1.076,0,1,0-1.12-1.066,1.046,1.046,0,0,0,1.12,1.066" transform="translate(-65.994 -47.917)" fill="#010101"/>
    <path id="Trazado_605144" data-name="Trazado 605144" d="M222.634,314.381a1.986,1.986,0,0,0-1.975,2,1.937,1.937,0,0,0,1.942,1.936,1.968,1.968,0,0,0,1.991-1.975,2.014,2.014,0,0,0-1.957-1.958" transform="translate(-177.541 -252.95)" fill="#c8bec7"/>
  </g>
</svg>
