<svg id="Grupo_869933" data-name="Grupo 869933" xmlns="http://www.w3.org/2000/svg" xmlns:xlink="http://www.w3.org/1999/xlink" width="74.852" height="74.86" viewBox="0 0 74.852 74.86">
  <defs>
    <clipPath id="clip-path">
      <rect id="Rectángulo_290693" data-name="Rectángulo 290693" width="74.852" height="74.86" fill="none"/>
    </clipPath>
  </defs>
  <g id="Grupo_869932" data-name="Grupo 869932" clip-path="url(#clip-path)">
    <path id="Trazado_605036" data-name="Trazado 605036" d="M75.423,71.316c.073-.213.024-.492.288-.619v-2.34c-.358,0-.33-.314-.394-.52a7.607,7.607,0,0,0-1.977-3.118q-6.487-6.492-12.978-12.979a6.514,6.514,0,0,0-.479-.451A1.229,1.229,0,0,0,58,51.312c-.836.736-.838.738-1.639-.062-1.225-1.222-2.453-2.442-3.669-3.673-.6-.6-.606-.752-.117-1.436a28.515,28.515,0,0,0,1.649-30.808,27.113,27.113,0,0,0-4.332-5.773,28.482,28.482,0,0,0-8.9-6.162A27.8,27.8,0,0,0,28.1,1,27.866,27.866,0,0,0,11.814,7.147a27.747,27.747,0,0,0-10.6,19.112,27.622,27.622,0,0,0,6.578,21.61A27.56,27.56,0,0,0,26.3,57.737a27.969,27.969,0,0,0,19.717-5.084c.895-.621.966-.635,1.718.113,1.261,1.256,2.524,2.509,3.772,3.778.256.26.384.426.395.591l.058.058-.068.049a1.411,1.411,0,0,1-.349.52c-.875.989-.87,1.441.1,2.413q5.083,5.1,10.187,10.186c1.209,1.2,2.364,2.46,3.654,3.581a7.225,7.225,0,0,0,2.2,1.275c.224.086.56.079.568.454h2.194c.358-.112.721-.209,1.071-.34a6.233,6.233,0,0,0,3.906-4.014m-45.9-15.683a26.123,26.123,0,1,1,26.15-26.088,26.143,26.143,0,0,1-26.15,26.088m22.789-1.589C51.3,53.028,50.293,52,49.254,51c-.337-.323-.319-.509.018-.8.478-.407.92-1.2,1.374-1.2s.926.762,1.375,1.206c1.006.993,2,1.995,3,2.994.119.119.231.245.375.4l-.236.28c-1.377,1.631-1.377,1.631-2.85.158m14.941,18.38a6.092,6.092,0,0,1-.707-.632Q60.37,65.623,54.189,59.458c-.42-.417-.471-.647-.018-1.082,1.476-1.416,2.914-2.871,4.343-4.335.333-.342.528-.348.869-.006q6.338,6.37,12.7,12.717a3.909,3.909,0,0,1,1.145,3.054,3.51,3.51,0,0,1-2.051,2.983,3.589,3.589,0,0,1-3.921-.365" transform="translate(-0.858 -0.809)"/>
    <path id="Trazado_605037" data-name="Trazado 605037" d="M71.071,62.268q-5.8-5.776-11.585-11.576c-1.187-1.186-1.59-1.2-2.764-.011-.32.325-.473.316-.782,0-1.325-1.363-2.659-2.719-4.037-4.027-.453-.43-.433-.679-.084-1.175a27.946,27.946,0,0,0,4.336-24.765A28.648,28.648,0,1,0,36.566,56.2a29.136,29.136,0,0,0,9.046-4.448c.2-.149.382-.478.726-.13,1.538,1.557,3.094,3.1,4.7,4.706-.01-.164-.139-.331-.395-.591-1.247-1.269-2.511-2.522-3.772-3.777-.752-.749-.823-.735-1.718-.114a27.968,27.968,0,0,1-19.717,5.084A27.56,27.56,0,0,1,6.936,47.06,27.623,27.623,0,0,1,.358,25.45a27.749,27.749,0,0,1,10.6-19.112A27.866,27.866,0,0,1,27.242.191a27.8,27.8,0,0,1,12.889,2.4,28.482,28.482,0,0,1,8.9,6.162,27.122,27.122,0,0,1,4.332,5.773,28.514,28.514,0,0,1-1.649,30.808c-.488.683-.479.832.117,1.436C53.052,48,54.279,49.219,55.5,50.441c.8.8.8.8,1.639.062a1.229,1.229,0,0,1,1.881-.022,6.513,6.513,0,0,1,.479.451Q65.993,57.42,72.481,63.91a7.608,7.608,0,0,1,1.977,3.118c.064.205.035.521.394.52-.539-2.277-2.223-3.729-3.781-5.28" transform="translate(0 0)"/>
    <path id="Trazado_605038" data-name="Trazado 605038" d="M336.3,379.909a7.223,7.223,0,0,1-2.2-1.275c-1.29-1.121-2.445-2.378-3.654-3.581q-5.106-5.08-10.186-10.186c-.967-.971-.973-1.423-.1-2.413a1.408,1.408,0,0,0,.349-.52,2.617,2.617,0,0,0-.327.251c-1.234,1.239-1.234,1.6-.018,2.812q5.971,5.971,11.937,11.948c1.39,1.4,2.723,2.857,4.747,3.349.012,0,.015.044.022.068-.008-.375-.344-.368-.568-.454" transform="translate(-269.478 -305.502)"/>
    <path id="Trazado_605039" data-name="Trazado 605039" d="M42.652,16.531A26.123,26.123,0,1,0,68.72,42.69,26.073,26.073,0,0,0,42.652,16.531m-.162,49.76A23.636,23.636,0,1,1,66.233,42.732,23.627,23.627,0,0,1,42.49,66.291" transform="translate(-13.905 -13.954)" fill="#fe9711"/>
    <path id="Trazado_605040" data-name="Trazado 605040" d="M359.257,355.776a3.908,3.908,0,0,0-1.145-3.054q-6.346-6.362-12.7-12.717c-.34-.342-.535-.335-.869.006-1.429,1.464-2.867,2.919-4.343,4.335-.453.435-.4.665.018,1.082q6.2,6.149,12.358,12.334a6.1,6.1,0,0,0,.707.632,3.589,3.589,0,0,0,3.921.365,3.51,3.51,0,0,0,2.051-2.983" transform="translate(-286.889 -286.778)" fill="#78767f"/>
    <path id="Trazado_605041" data-name="Trazado 605041" d="M314.979,314.008l.236-.28c-.145-.154-.257-.28-.375-.4-1-1-2-2-3-2.994-.449-.443-.914-1.2-1.375-1.206s-.9.791-1.374,1.2c-.338.287-.356.474-.018.8,1.039.993,2.042,2.025,3.058,3.041,1.473,1.473,1.473,1.473,2.85-.158" transform="translate(-260.675 -260.931)" fill="#ed8600"/>
    <path id="Trazado_605042" data-name="Trazado 605042" d="M56.124,32.487A23.636,23.636,0,1,0,79.709,56.2,23.589,23.589,0,0,0,56.124,32.487m-.153,44.785A21.149,21.149,0,1,1,77.222,56.144,21.141,21.141,0,0,1,55.971,77.272" transform="translate(-27.38 -27.421)"/>
    <path id="Trazado_605043" data-name="Trazado 605043" d="M69.585,48.442a21.149,21.149,0,1,0,21.107,21.17,21.1,21.1,0,0,0-21.107-21.17M81.965,84.3c-.005,1.022-.457,1.459-1.484,1.46q-5.481.007-10.963,0-5.408,0-10.817,0c-1.195,0-1.637-.429-1.619-1.635a57.075,57.075,0,0,1,.1-6.642A5.963,5.963,0,0,1,61.7,72.31c1.137-.353,2.288-.662,3.432-.992a1.235,1.235,0,0,0,.457-1.934,6.35,6.35,0,0,1-2.258-5.448c.02-.364-.062-.573-.449-.681a1.105,1.105,0,0,1-.8-1.032c-.424-4.614,2.156-7.56,5.36-8.5a7.422,7.422,0,0,1,9.533,6.806c.023.535.02,1.072.013,1.607a1.052,1.052,0,0,1-.713,1.084c-.455.137-.526.383-.51.792a6.292,6.292,0,0,1-2.227,5.319c-.426.363-.17.816-.257,1.222-.14.652.341.674.761.793,1.215.344,2.436.67,3.634,1.068a6.082,6.082,0,0,1,4.281,5.753c.051,2.045.024,4.093.014,6.139" transform="translate(-40.849 -40.889)" fill="#fed322"/>
    <path id="Trazado_605044" data-name="Trazado 605044" d="M124.424,99.3c-1.2-.4-2.419-.723-3.634-1.068-.42-.119-.9-.14-.761-.793.087-.406-.169-.859.257-1.222a6.293,6.293,0,0,0,2.227-5.319c-.016-.409.055-.655.51-.792a1.052,1.052,0,0,0,.713-1.084c.007-.536.01-1.072-.013-1.607a7.422,7.422,0,0,0-9.533-6.806c-3.2.945-5.784,3.89-5.36,8.5a1.106,1.106,0,0,0,.8,1.032c.387.108.469.317.449.681a6.35,6.35,0,0,0,2.258,5.448,1.235,1.235,0,0,1-.457,1.934c-1.144.33-2.295.64-3.432.992a5.963,5.963,0,0,0-4.515,5.175,57.04,57.04,0,0,0-.1,6.642c-.018,1.206.424,1.634,1.619,1.635q5.408,0,10.817,0,5.482,0,10.963,0c1.027,0,1.478-.438,1.483-1.46.01-2.046.037-4.094-.014-6.139a6.082,6.082,0,0,0-4.281-5.753M111.735,87.791c-.347-.014-.47-.119-.429-.481a4.977,4.977,0,0,1,4.986-4.493,4.919,4.919,0,0,1,4.876,3.921c.063.273.19.7-.055.808-.319.141-.522-.265-.687-.512-.2-.3-.33-.651-.51-.967a1.236,1.236,0,0,0-1.954-.494q-.768.491-1.515,1.016a7.359,7.359,0,0,1-4.713,1.2m.838,3.938c-.064-1.39-.066-1.4,1.3-1.562a8.606,8.606,0,0,0,3.964-1.537c.314-.218.5-.286.739.1a3.017,3.017,0,0,0,.713.722c.733.578.74.568.739,1.507,0,2.339-1.088,3.808-3.107,4.2a3.71,3.71,0,0,1-4.35-3.432m2.475,6.235c.007-.275.065-.428.394-.311a4.477,4.477,0,0,0,1.71-.015c.275-.062.386,0,.4.308.02.616-.157,1.267.289,1.821.1.123-.019.22-.114.295-.114.09-.232.175-.348.262-1.089.817-1.082.807-2.188,0-.358-.261-.593-.45-.266-.936.278-.413.112-.946.125-1.426m10.657,12.215c-1.963.047-1.963.06-1.963-1.882,0-.852-.015-1.705.007-2.557.01-.383-.064-.551-.509-.564-1.987-.059-1.987-.075-1.987,1.935,0,.8-.028,1.609.01,2.411.024.5-.111.672-.637.659-1.46-.036-2.922-.013-4.383-.013s-2.923-.017-4.383.01c-.455.009-.581-.132-.572-.578.028-1.266-.008-2.533.019-3.8.01-.456-.092-.626-.593-.627-1.9-.007-1.9-.027-1.9,1.87,0,.877-.015,1.754.007,2.63.009.374-.1.525-.491.5a9.791,9.791,0,0,0-1.46,0c-.486.043-.558-.177-.551-.594.021-1.436-.007-2.874.013-4.31a3.739,3.739,0,0,1,2.715-3.656,5.5,5.5,0,0,0,.838-.243,2.692,2.692,0,0,1,3.444.621,17.88,17.88,0,0,0,2.028,1.55,1.328,1.328,0,0,0,1.857.012c1.058-.779,2.113-1.564,3.151-2.371a.966.966,0,0,1,.992-.213c.76.252,1.542.44,2.3.691a3.615,3.615,0,0,1,2.568,3.445c.032,1.509,0,3.02.02,4.529.006.411-.12.529-.534.539" transform="translate(-87.604 -67.779)"/>
    <path id="Trazado_605045" data-name="Trazado 605045" d="M139.89,216.722a3.615,3.615,0,0,0-2.568-3.445c-.76-.252-1.542-.44-2.3-.691a.966.966,0,0,0-.992.213c-1.038.807-2.092,1.591-3.151,2.371a1.328,1.328,0,0,1-1.857-.012,17.877,17.877,0,0,1-2.028-1.55,2.692,2.692,0,0,0-3.444-.621,5.5,5.5,0,0,1-.838.243A3.739,3.739,0,0,0,120,216.885c-.02,1.437.008,2.874-.013,4.31-.006.417.065.637.552.594a9.792,9.792,0,0,1,1.46,0c.392.024.5-.126.491-.5-.022-.876-.007-1.753-.007-2.63,0-1.9,0-1.877,1.9-1.87.5,0,.6.172.593.627-.027,1.266.009,2.533-.019,3.8-.01.446.116.587.572.578,1.461-.028,2.922-.01,4.383-.01s2.923-.024,4.383.013c.527.013.661-.161.637-.659-.039-.8-.01-1.607-.01-2.411,0-2.011,0-1.995,1.987-1.935.445.013.519.181.509.564-.022.852-.007,1.7-.007,2.557,0,1.942,0,1.929,1.963,1.882.414-.01.54-.128.534-.539-.022-1.51.013-3.02-.02-4.529" transform="translate(-101.274 -179.391)" fill="#3d99e1"/>
    <path id="Trazado_605046" data-name="Trazado 605046" d="M164.383,139.3c2.02-.4,3.106-1.865,3.107-4.2,0-.939-.007-.929-.739-1.507a3.02,3.02,0,0,1-.713-.722c-.239-.384-.426-.316-.739-.1a8.606,8.606,0,0,1-3.964,1.537c-1.368.159-1.367.171-1.3,1.562a3.71,3.71,0,0,0,4.35,3.432" transform="translate(-135.064 -111.922)" fill="#fed9a9"/>
    <path id="Trazado_605047" data-name="Trazado 605047" d="M158.635,99.162a1.236,1.236,0,0,1,1.954.494c.181.317.309.666.51.967.165.247.368.652.687.512.245-.108.118-.535.055-.808a4.919,4.919,0,0,0-4.876-3.921,4.977,4.977,0,0,0-4.986,4.493c-.041.362.082.467.429.481a7.358,7.358,0,0,0,4.712-1.2q.746-.524,1.515-1.016" transform="translate(-128.276 -81.368)" fill="#3e3d42"/>
    <path id="Trazado_605048" data-name="Trazado 605048" d="M174.641,194.062c1.106.806,1.1.816,2.188,0,.116-.087.234-.172.348-.262.095-.075.213-.172.114-.295-.446-.554-.269-1.205-.289-1.821-.01-.308-.121-.37-.4-.308a4.477,4.477,0,0,1-1.71.015c-.329-.118-.387.036-.394.311-.012.48.153,1.013-.125,1.426-.328.486-.092.676.266.936" transform="translate(-147.055 -161.515)" fill="#fdd8a9"/>
  </g>
</svg>
