<svg id="Grupo_873541" data-name="Grupo 873541" xmlns="http://www.w3.org/2000/svg" xmlns:xlink="http://www.w3.org/1999/xlink" width="21.931" height="21.942" viewBox="0 0 21.931 21.942">
  <defs>
    <clipPath id="clip-path">
      <rect id="Rectángulo_292247" data-name="Rectángulo 292247" width="21.931" height="21.942" fill="#9ca3af"/>
    </clipPath>
  </defs>
  <g id="Grupo_873537" data-name="Grupo 873537" clip-path="url(#clip-path)">
    <path id="Trazado_608262" data-name="Trazado 608262" d="M13.5.3C12.949.174,12.378.122,11.815.034,11.759.026,11.7.011,11.65,0H10.279c-.4.055-.805.1-1.2.166A10.966,10.966,0,1,0,21.676,13.3c.106-.5.149-1.015.222-1.522a1.052,1.052,0,0,1,.033-.123V10.28c-.055-.4-.1-.805-.166-1.205A10.946,10.946,0,0,0,13.5.3M10.966,20.561a9.6,9.6,0,1,1,9.594-9.586,9.613,9.613,0,0,1-9.594,9.586" transform="translate(0 0.001)" fill="#9ca3af"/>
    <path id="Trazado_608263" data-name="Trazado 608263" d="M140.715,78.04a1.715,1.715,0,1,1,1.69-1.762.689.689,0,1,0,1.37-.05,3.1,3.1,0,0,0-2.2-2.858c-.066-.019-.13-.043-.2-.066,0-.25,0-.485,0-.721a.685.685,0,1,0-1.369,0c0,.242,0,.484,0,.729-.057.021-.1.04-.15.053a3.062,3.062,0,0,0-1.986,4.193,2.986,2.986,0,0,0,2.8,1.852,1.715,1.715,0,1,1-1.689,1.762.694.694,0,0,0-.7-.73.686.686,0,0,0-.667.779,3,3,0,0,0,1.5,2.541,7.987,7.987,0,0,0,.9.412c0,.221,0,.456,0,.691a.685.685,0,1,0,1.369.006c0-.242,0-.484,0-.73l.213-.065a3.073,3.073,0,0,0,1.922-4.18,2.986,2.986,0,0,0-2.8-1.851" transform="translate(-129.728 -67.756)" fill="#9ca3af"/>
  </g>
</svg>
